<?xml version="1.0" encoding="UTF-8"?>
<svg version="1.1" viewBox="0 0 2048 2013" width="1280" height="1280" xmlns="http://www.w3.org/2000/svg">
<path transform="translate(0)" d="m0 0h2048v2013h-2048z" fill="#140D18"/>
<path transform="translate(238,1052)" d="m0 0h710l5 2 12 22 8 13 8 18 13 43 6 26 3 20 5 47 1 23-5 53-4 26-6 25-8 28-8 23-10 21-12 22-14 23-12 16-14 17-7 8-9 10-7 8-11 9-11 10-19 14-15 11-14 8-23 12-29 13-24 9-35 10-30 7-19 3-26 2-37 4h-11l-9-2-4-1h-23l-14-2-22-2-25-5-45-12-27-9-28-13-19-10-15-9-17-12-12-9-14-11-12-11-8-7-15-16-9-11-13-15-12-17-8-13-10-18-10-19-9-21-8-24-8-28-6-28-3-22-2-23-1-19v-19l3-35 4-32 5-23 12-40 8-21 11-23 8-15 4-7z" fill="#FEFEFE"/>
<path transform="translate(880,234)" d="m0 0h45l123 1 1 1 1 7v561l-1 1-10 1-196-1-4-3-1-3 1-195-6 5-9 12-30 42-14 19-11 16-24 34-11 16-10 14-9 13-8 11-6 10-4 1h-137l-7-6-8-12-16-23-12-17-14-20-24-34-14-19-13-18-16-23-12-17-6-5-1 25v176l-8 2h-200l-4-4-1-16v-500l1-46 3-5h166l7 2 6 7 16 24 12 17 26 36 11 16 13 18 8 12 26 36 11 16 12 17 14 20 13 18 13 19 10 13 9 13 11 16 10 14 11 15 15 20 5-4 12-17 7-10 13-19 12-16 13-19 10-14 11-16 13-18 12-17 16-23 12-16 15-22 13-18 14-20 13-18 12-17 22-32 16-22 6-8z" fill="#FEFEFE"/>
<path transform="translate(1764,1051)" d="m0 0 57 1 2 5v78l-3 6-8 6-14 10-13 10-21 16-18 13-17 13-19 14-13 9-16 12-19 14-13 10-20 15-21 16-32 24-18 13-13 10-14 10-18 14-19 14-32 24-18 13-8 5h297l87 1 3 3v210l-4 3-72 1h-683l-3-5v-171l7-8 12-9 17-12 16-12 14-10 12-9 13-10 14-11 16-12 18-14 15-11 14-10 18-14 14-10 17-13 16-12 18-13 13-10 21-16 18-13 15-12 19-14 12-8 14-10 14-11 4-4v-2h-376l-4-2-1-26v-95l1-2 57-1z" fill="#FEFEFE"/>
<path transform="translate(1502,215)" d="m0 0h17l39 3 34 4 26 6 31 9 23 8 25 12 21 11 19 11 14 10 11 9 15 13 13 11 15 15 11 13 8 10 14 18 8 12 10 16 8 16 13 27 8 21 11 39 8 36 3 21 3 36 1 33-2 34-3 32-4 24-8 32-11 41-4 6-3 1-263 1-23 2-3-3h7l21-10 18-12 17-12 13-13 14-19 9-16 8-20 7-23 4-24 2-18v-19l-3-28-5-22-9-24-12-23-10-14-11-13-12-12-12-9-15-10-16-8-24-9-21-5-24-3h-36l-29 4-20 5-24 10-16 9-14 10-13 10-10 9-11 14-10 15-8 16-10 25-5 18-3 16-2 20v21l3 25 5 21 10 27 10 18 12 17 11 13 7 8 17 13 15 11 6 4 3 3 9 3v2l-276-1-5-3-4-11-12-44-7-33-4-28-4-45v-22l4-48 4-31 6-26 9-33 7-21 9-20 14-29 13-23 9-12 18-22 8-10 9-11 8-8 4-5 11-9 10-9 13-10 10-8 14-9 24-13 19-10 18-8 35-11 33-9 23-4 34-3z" fill="#FEFEFE"/>
<path transform="translate(580,1068)" d="m0 0h30l29 4 17 4 26 9 19 10 17 12 12 11 8 8 12 16 12 19 12 25 6 20 3 16 2 17v39l-4 29-4 18-12 31-8 12-11 16-13 16-10 9-13 10-14 9-16 8-18 7-15 5-23 3-19 3h-14l-33-4-23-5-28-10-17-9-14-10-10-8-11-10-9-11-12-17-11-19-11-28-5-20-2-16-1-14v-28l4-31 5-19 10-24 9-17 10-15 7-9 9-10 4-5 14-11 18-12 15-7 27-10 19-4z" fill="#140D18"/>
<path transform="translate(1665,883)" d="m0 0h20l11 3 10 6 8 9 4 10 1 4v20l-4 12-10 13-10 6-9 3-6 1h-13l-12-3-8-4-6-5-6-9-4-10-2-10v-9l4-13 6-9 7-7 10-6z" fill="#FEFEFE"/>
<path transform="translate(822,882)" d="m0 0h14l10 3 9 5 7 8 4 10 3 17v10l-2 11-4 6-7 7-10 7-13 4h-13l-12-3-9-6-9-9-6-12-2-8v-11l4-13 6-10 9-9 8-4z" fill="#FCFCFC"/>
<path transform="translate(381,883)" d="m0 0 30 1 18 2 10 3 7 5 7 11 3 9v24l-2 9-9 10-8 5-15 5-16 2h-24l-3-5-1-7-1-35v-18l1-16z" fill="#FEFEFE"/>
<path transform="translate(1442,883)" d="m0 0h13l23 1 16 3 10 6 8 9 6 12v18l-4 16-9 10-12 6-14 4-8 1h-26l-5-6-1-14v-27l1-33z" fill="#FEFEFE"/>
<path transform="translate(1395,1756)" d="m0 0h25l14 3 5 4 4 11 1 8v10l-4 13-7 11-7 6-9 4-16 3-22 1-8-2-2-2 1-8 4-23 5-22 4-11 5-5z" fill="#FEFEFE"/>
<path transform="translate(920,883)" d="m0 0h8l6 3 7 8 4 6 10 13 8 12 4 4h2l1-2 1-36 3-7 1-1h8l6 5v73l-1 8-4 2-8-1-7-7-11-16-9-12-7-9-5-4v44l-7 3h-12l-2-3v-76l3-6z" fill="#FEFEFE"/>
<path transform="translate(1587,1754)" d="m0 0 10 1 10 5 5 6 2 6 1 8v11l-4 13-10 17-8 7-5 1h-22l-8-4-6-8-3-8v-15l5-15 7-12 7-7 8-4z" fill="#FEFEFE"/>
<path transform="translate(1322,883)" d="m0 0h9l5 3 1 1 1 48 3 9 5 5 9 1 9-3 4-8 1-4 1-47 2-4 2-1h8l6 3 2 5 1 28-3 26-6 12-5 5-11 6-3 1h-18l-10-3-8-7-6-10-3-14v-44l3-7z" fill="#FEFEFE"/>
<path transform="translate(507,882)" d="m0 0 51 1 2 2v9l-1 2-28 1-7 1 2 14 2 8h2v-2h5l1 1 11-1 8-1 2 4v8l-5 3-5 1h-13l-9 3-1 1v8l3 5 4 2h18l9-1 3 1 1 3v7l-3 7-5 1h-40l-7-2-3-4-2-12v-41l1-19 2-9z" fill="#FEFEFE"/>
<path transform="translate(630,883)" d="m0 0h18l10 4 5 6 3 7v7l-2 4-9-3-13-8-3-1h-11l-2 2v7l8 5 24 11 9 8 2 5v12l-3 9-4 5-11 5-9 2-17-1-12-5-5-6-3-7-1-11 2-4 5 2 9 6 11 7 7 2h6l4-2 1-2-1-9-5-4-13-4-10-4-11-8-3-6v-10l4-12 4-5 9-3z" fill="#FEFEFE"/>
<path transform="translate(1129,882)" d="m0 0 10 1 10 4 5 4 4 8 1 5-2 6-8-1-14-6-7-4h-9l-4 2 1 7 6 5 12 5 16 7 6 4 3 6 1 4v16l-3 5-10 6-10 3h-20l-12-5-6-7-3-8 1-10 1-2 5 1 9 6 9 7 3 2h11l5-3 1-2v-6l-2-3-19-7-10-6-9-5-3-3-1-3v-12l3-10 7-6 8-3z" fill="#FEFEFE"/>
<path transform="translate(1206,883)" d="m0 0h58l9 2 3 6-1 8-1 1h-19l-5 2-1 3v59l-2 5-2 1h-12l-5-4-1-9v-43l-2-10-3-1-15-2-4-4-1-9z" fill="#FEFEFE"/>
<path transform="translate(1191,1755)" d="m0 0h32l3 6v6l-3 2h-26l-4 2-2 12-1 2h26l4 4v5l-7 3-25 1-3 9 2 5 3 2 5 1h18l6 4-2 7-2 2-5 1h-41l-5-5 2-17 7-31 5-16 2-3z" fill="#FEFEFE"/>
<path transform="translate(1260,1755)" d="m0 0h13l8 2 7 3 3 5v8l-5 8h-4l-6-4-7-8h-12l-3 2v8l4 4 12 4 6 4h5l5 4 1 2-1 13-3 9-5 5-5 3-8 2h-23l-6-3-5-6-2-5v-10l3-1 13 7 6 3 4 1h7l5-3 3-5v-6l-6-2-10-2-10-4-6-5-3-6 1-10 4-10 6-4z" fill="#FEFEFE"/>
<path transform="translate(1740,1755)" d="m0 0h10l3 3-4 11-8 7-3 6 1 6 6 10 1 6-3 13-7 8-11 4-6 1h-12l-10-3-4-6-1-4v-10l2-3 5 1 13 8 2 1h8l5-3 2-4v-7l-1-3-2-1-11-1-7-3-1-5 8-7 9-6 1-3h-20l-4-4-1-4 3-5 2-1z" fill="#FEFEFE"/>
<path transform="translate(1657,1755)" d="m0 0h9l13 4 3 7 1 9-2 9-6 9-8 8-9 7-6 6 7 2h17l2 4-1 5-6 3-5 1h-42l-6-4 2-5 7-8 13-10 10-7 9-7 8-11-1-5-3-2h-11l-8 7-10 5-1-1v-8l4-9 6-5 7-3z" fill="#FEFEFE"/>
<path transform="translate(1518,1755)" d="m0 0h7l6 3 5 6 2 5v14l-5 8-12 10-8 7-5 4v2l2 1h20l3 3-1 8-6 3-14 1-35-1-3-3 1-5 3-5 13-10 9-6 13-10 6-7 1-3v-7l-3-4-7 1-13 8-7 1-1-1v-8l3-6 7-6z" fill="#FEFEFE"/>
<path transform="translate(1666,900)" d="m0 0h11l9 2 8 6 5 9 1 4v12l-5 10-8 6-12 3-11-2-6-2-4-5-4-9-1-5v-10l5-12 6-5z" fill="#140D18"/>
<path transform="translate(1321,1756)" d="m0 0h44l5 2 2 5v5l-2 1h-21l-3 3-4 17-4 13-3 20-3 5-10 2-6-2-1-5 6-24 3-15v-8l-2-5-16-1-3-2 1-5 4-5z" fill="#FEFEFE"/>
<path transform="translate(819,900)" d="m0 0h15l15 5 9 6 3 6-6 3-3 2-11-3h-9l-6 3-3 5 2 5 1 1 19 1 2 1v7l-6 7-10 4h-8l-11-4-6-7-4-10v-14l4-10 7-6z" fill="#140D18"/>
<path transform="translate(1465,900)" d="m0 0 12 1 10 3 7 6 3 6 2 10-1 10-4 6-6 5-7 3h-17l-3-1-3-8v-30l1-9z" fill="#140D18"/>
<path transform="translate(401,901)" d="m0 0h16l11 3 7 8 2 7v16l-2 7-8 6-8 2h-11l-6-2-3-6-1-5v-33z" fill="#140D18"/>
<path transform="translate(722,882)" d="m0 0 9 1 4 3 1 13v68l-1 1-7 1h-10l-2-2v-77l3-6z" fill="#FEFEFE"/>
<path transform="translate(1568,882)" d="m0 0 10 1 5 5v58l-1 21-2 3h-12l-4-9v-71l2-7z" fill="#FEFEFE"/>
<path transform="translate(1402,1769)" d="m0 0h9l8 3 6 7 3 10-2 9-6 8-10 6-3 1h-10l-5-5-1-8 4-24 3-5z" fill="#140D18"/>
<path transform="translate(1586,1769)" d="m0 0 7 2 4 6 1 3v13l-5 12-7 8-4 2h-7l-6-3-3-5-1-5v-10l4-13 5-6 7-3z" fill="#140D18"/>
</svg>
